# xmcd
#
# Track frame offsets: 
#        150
#        16991
#        36039
#        48521
#        76197
#        91557
#        105175
#        130970
#        146703
#        165889
#        182178
#        199190
#
# Disc length: 3069 seconds
#
# Revision: 0
# Processed by: cddbd v1.5.2PL0 Copyright (c) Steve Scherf et al.
# Submitted via: ExactAudioCopy v0.95a5
#
DISCID=8b0bfb0c
DTITLE=U pravcu jablanova - Sinobusi
DYEAR=2007
DGENRE=Blues
TTITLE0=U pravcu jablanova
TTITLE1=Moje ruke sad su ptice
TTITLE2=Camac na Tisi
TTITLE3=Ladja
TTITLE4=Bulevar srece
TTITLE5=Where is the freedom
TTITLE6=Prasina
TTITLE7=If i had possession over judgement Day
TTITLE8=Jutro je sebi prokrcilo put
TTITLE9=Bluez je djavo
TTITLE10=Predosecaj
TTITLE11=Cekanje
EXTD=
EXTT0=
EXTT1=
EXTT2=
EXTT3=
EXTT4=
EXTT5=
EXTT6=
EXTT7=
EXTT8=
EXTT9=
EXTT10=
EXTT11=
PLAYORDER=
